HIERARCHY
ROOT Hips
{
  OFFSET 61.7919 92.9829 -6.01913
  CHANNELS 6 Xposition Yposition Zposition Zrotation Xrotation Yrotation
  JOINT RightUpLeg
  {
    OFFSET -8.9458 -8.66707 0.101652
    CHANNELS 3 Zrotation Xrotation Yrotation
    JOINT RightLeg
    {
      OFFSET 0 -44.4227 1.3727
      CHANNELS 3 Zrotation Xrotation Yrotation
      JOINT RightFoot
      {
        OFFSET 0.253549 -42.0924 -1.46059
        CHANNELS 3 Zrotation Xrotation Yrotation
        JOINT RightToes
        {
          OFFSET 0.04 -4.41509 8.4991
          CHANNELS 3 Zrotation Xrotation Yrotation
          End Site
          {
            OFFSET -0.08 -0.137448 9.77979
          }
        }
      }
    }
  }
  JOINT Spine
  {
    OFFSET 0 11.8905 0
    CHANNELS 3 Zrotation Xrotation Yrotation
    JOINT Spine1
    {
      OFFSET 0 25.6574 0.127663
      CHANNELS 3 Zrotation Xrotation Yrotation
      JOINT HEad
      {
        OFFSET 0 8.73416 0.011341
        CHANNELS 3 Zrotation Xrotation Yrotation
        End Site
        {
          OFFSET -0.29 12.7742 2.51395
        }
      }
      JOINT LeftShoulder1
      {
        OFFSET 8.99 -0.362252 -0.22
        CHANNELS 3 Zrotation Xrotation Yrotation
        JOINT LeftArm
        {
          OFFSET 10.2827 -0.00338 0.322123
          CHANNELS 3 Zrotation Xrotation Yrotation
          JOINT LeftForeArm
          {
            OFFSET 32.7669 0.099144 -1.42434
            CHANNELS 3 Zrotation Xrotation Yrotation
            JOINT LeftHand
            {
              OFFSET 27.5643 0.085362 1.02216
              CHANNELS 3 Zrotation Xrotation Yrotation
              End Site
              {
                OFFSET 16.7443 -0.6 1.50291
              }
            }
          }
        }
      }
      JOINT RightShoulder
      {
        OFFSET -8.99 -0.362252 -0.22
        CHANNELS 3 Zrotation Xrotation Yrotation
        JOINT RightArm
        {
          OFFSET -10.2827 -0.00338 0.322123
          CHANNELS 3 Zrotation Xrotation Yrotation
          JOINT RightForeArm
          {
            OFFSET -32.8971 0.099144 -1.42434
            CHANNELS 3 Zrotation Xrotation Yrotation
            JOINT RightHand
            {
              OFFSET -27.4921 0.085362 1.02216
              CHANNELS 3 Zrotation Xrotation Yrotation
              End Site
              {
                OFFSET -16.6312 -0.6 1.50291
              }
            }
          }
        }
      }
    }
  }
  JOINT LeftUpLeg
  {
    OFFSET 8.9458 -8.66707 0.101652
    CHANNELS 3 Zrotation Xrotation Yrotation
    JOINT LeftLeg
    {
      OFFSET 0 -44.4227 1.3727
      CHANNELS 3 Zrotation Xrotation Yrotation
      JOINT LeftFoot
      {
        OFFSET -0.253549 -42.0924 -1.46059
        CHANNELS 3 Zrotation Xrotation Yrotation
        JOINT LeftToes
        {
          OFFSET -0.04 -4.41509 8.4991
          CHANNELS 3 Zrotation Xrotation Yrotation
          End Site
          {
            OFFSET 0.08 -0.047448 9.77979
          }
        }
      }
    }
  }
}
MOTION
Frames:	7
Frame Time:	0.0166667
10.7292 88.1806 -2.50316 -0.686316 -1.85206 -38.5211 -26.7852 -27.4526 7.08893 18.1498 39.4388 -30.2859 16.8306 28.0386 -5.20922 -48.0508 -36.794 -8.37573 0.788814 9.49332 -5.65924 -6.34087 18.8853 -10.0516 14.9789 -15.8671 -33.5714 3.18055e-015 -3.18055e-015 3.18055e-015 -63.6361 -9.04956 -85.2209 4.37892 36.8955 -103.851 6.22909 10.0521 7.61616 28.318 -2.11099 -9.3086 54.0525 -67.9675 41.2464 -14.3872 13.9345 152.472 41.412 -4.5958 -40.6211 42.3959 -8.47279 -8.23752 -27.4899 29.5684 35.2636 -0.338934 19.8632 -0.0539126 31.1654 -38.1529 9.95198 
11.9098 87.103 -3.37148 -1.08909 -2.84073 -37.0607 -27.2291 -25.9456 7.81231 18.1217 39.0265 -32.3399 14.4652 27.4822 -4.39291 -49.4383 -36.8479 -10.0655 0.427464 9.73153 -5.71299 -7.24359 19.3888 -10.0158 14.4703 -15.3266 -33.7084 3.18055e-015 -6.36111e-015 6.36111e-015 -63.638 -8.47016 -86.2286 4.90881 37.2526 -103.17 6.10052 10.0607 7.88177 26.6628 -1.73628 -8.40558 53.0957 -73.0879 40.5739 -13.2127 17.6525 150.379 40.5579 -4.50395 -41.1714 43.276 -9.15417 -8.0597 -28.5843 31.5446 43.0537 3.15961 22.2237 -0.97088 27.78 -35.1498 8.17048 
13.4543 86.3979 -4.03569 -1.52458 -3.44832 -35.8166 -27.9841 -24.8008 8.42562 18.5507 37.8075 -33.2764 12.8768 26.2276 -3.76476 -46.9654 -35.5643 -8.97991 0.184661 9.98132 -5.76004 -7.66727 19.9146 -10.0373 14.0616 -15.2423 -33.6832 -3.18055e-015 0 1.27222e-014 -63.5571 -7.8492 -86.7247 5.1572 37.3086 -103.598 5.9576 10.0703 8.19204 25.3084 -1.41323 -7.5256 49.126 -76.97 36.7969 -11.8436 22.2626 146.507 35.4445 -2.72725 -41.6083 43.2987 -9.39403 -7.87523 -28.416 32.3633 47.5578 6.912 26.409 -2.23004 26.4438 -33.9101 7.45015 
15.3599 86.1932 -4.51265 -2.02677 -3.68549 -34.5853 -29.0067 -23.625 8.77913 19.3242 35.699 -33.044 12.0734 24.0607 -3.30747 -40.8346 -32.5219 -5.6869 0.0450829 10.246 -5.8264 -7.58246 20.4875 -10.1747 13.8756 -15.4754 -33.7795 1.76556e-031 1.59028e-015 -6.36111e-015 -63.1414 -6.93834 -86.7407 5.13932 37.0703 -104.711 5.84907 10.0785 8.4602 24.6437 -1.2195 -6.9291 41.6535 -79.1902 29.3362 -10.764 25.6148 141.903 27.9015 0.194337 -41.1373 42.5664 -9.143 -7.61052 -26.7757 31.6916 48.3158 10.4768 31.8431 -3.84009 29.5173 -36.2466 9.99713 
17.5294 86.5242 -4.83154 -2.53399 -3.56345 -33.1615 -29.9333 -22.0616 8.67096 19.4878 32.7494 -31.4569 11.8767 20.9585 -2.94832 -32.0395 -27.1626 -1.69873 0.049168 10.4729 -5.94306 -7.05732 21.0072 -10.4887 13.9945 -15.6319 -34.1395 -6.36111e-015 -1.59028e-015 -3.18055e-015 -62.0933 -5.52128 -86.2126 4.98092 36.5102 -105.971 5.81458 10.0827 8.58523 24.8697 -1.21245 -6.86207 34.7592 -80.5487 22.1004 -10.6901 26.9556 138.47 20.9677 2.83518 -40.1754 41.4517 -8.65333 -7.23364 -24.2423 29.69 46.6203 12.9449 36.8608 -5.32893 35.9155 -40.21 15.5991 
19.8558 87.3289 -5.05086 -2.86986 -3.07893 -31.4741 -30.3769 -20.2195 8.18443 18.2591 29.4083 -28.6923 12.3516 16.5953 -2.62434 -21.3928 -19.0742 1.42927 0.323263 10.5792 -6.1145 -6.29822 21.2943 -10.96 14.4816 -15.3826 -34.7619 -3.18055e-015 -6.36111e-015 -0 -60.2647 -3.54093 -85.1301 4.82874 35.6115 -106.908 5.863 10.0804 8.49265 26.0416 -1.45598 -7.53745 32.0935 -82.1244 18.7725 -11.8323 26.7328 137.635 16.9293 4.17865 -40.1996 40.3143 -8.46776 -6.71994 -21.7431 27.065 43.2081 12.2156 39.9793 -5.41553 42.684 -43.3491 21.7568 
22.2309 88.4916 -5.25861 -2.81622 -2.25662 -29.5843 -30.2808 -18.4866 7.82663 15.745 26.1435 -25.7316 13.4531 10.2572 -2.15815 -9.14113 -8.2815 2.32215 0.845753 10.4956 -6.32116 -5.59574 21.2144 -11.5298 15.3573 -14.7164 -35.5175 -3.18055e-015 3.18055e-015 3.18055e-015 -57.8347 -1.18075 -83.5783 4.79232 34.4761 -107.336 5.94238 10.0717 8.23627 28.0511 -1.99266 -8.97518 35.4267 -84.2063 21.3227 -13.658 25.4985 139.402 16.2088 4.18402 -41.6119 39.3116 -9.00467 -6.01502 -19.817 24.5451 37.8277 6.01342 40.5078 -2.82483 47.2558 -45.3911 25.3235 
